<svg version="1.1" id="Layer_1" xmlns="http://www.w3.org/2000/svg" xmlns:xlink="http://www.w3.org/1999/xlink" x="0px" y="0px"
	 width="100%" viewBox="0 0 178 152" enable-background="new 0 0 178 152" xml:space="preserve">
<path fill="#FFFFFF" opacity="1.000000" stroke="none" 
	d="
M142.000000,153.000000 
	C107.645775,153.000000 73.291542,153.000000 38.770859,152.696503 
	C26.855709,128.867813 15.118435,105.336899 3.309520,81.841988 
	C2.907892,81.042923 1.786108,80.605820 1.000000,80.000000 
	C1.000000,78.285645 1.000000,76.571281 1.307951,74.718613 
	C2.171043,73.823524 2.849462,73.128426 3.263355,72.301003 
	C14.593637,49.650223 25.905695,26.990299 37.175453,4.309372 
	C37.669464,3.315148 37.734917,2.107978 38.000000,1.000000 
	C72.354225,1.000000 106.708458,1.000000 141.229141,1.303504 
	C153.144287,25.132181 164.881561,48.663086 176.690475,72.157990 
	C177.092102,72.957062 178.213882,73.394173 179.000000,74.000000 
	C179.000000,75.714355 179.000000,77.428719 178.692047,79.281395 
	C177.828964,80.176476 177.150558,80.871582 176.736679,81.699005 
	C165.406372,104.349770 154.094315,127.009674 142.824539,149.690598 
	C142.330521,150.684830 142.265076,151.892014 142.000000,153.000000 
M11.095343,68.342827 
	C25.369289,57.791245 39.643234,47.239658 54.287998,36.413956 
	C49.847286,26.219467 45.437313,16.095539 40.787151,5.420207 
	C37.448074,12.120270 34.493614,17.995834 31.585512,23.894258 
	C24.351683,38.566444 17.138979,53.249046 9.357001,68.120720 
	C9.316559,68.660378 9.276115,69.200043 9.235673,69.739700 
	C9.675239,69.424797 10.114804,69.109901 11.095343,68.342827 
M104.989830,89.514267 
	C90.043686,98.159927 75.097549,106.805580 59.422626,115.872810 
	C85.618950,127.027153 111.152954,137.899475 137.426682,149.086792 
	C132.488403,125.302681 127.709900,102.288109 122.882576,79.038406 
	C116.982285,82.447945 111.281097,85.742424 104.989830,89.514267 
M129.564026,8.039225 
	C106.505585,17.875322 83.447144,27.711420 60.225986,37.616928 
	C81.055748,49.718250 101.845406,61.796272 123.084885,74.135628 
	C127.884987,50.992855 132.603180,28.244978 137.477341,4.745182 
	C134.456604,6.110248 132.403091,7.038224 129.564026,8.039225 
M57.000000,74.500000 
	C57.000000,87.254395 57.000000,100.008789 57.000000,113.630569 
	C78.731850,100.996101 99.768944,88.765549 120.820694,76.526474 
	C99.745529,64.279488 78.707230,52.053928 57.000000,39.439640 
	C57.000000,51.322449 57.000000,62.411224 57.000000,74.500000 
M55.000000,76.500000 
	C55.000000,64.477547 55.000000,52.455097 55.000000,39.827152 
	C38.078785,52.408974 21.818199,64.499580 5.307877,76.775887 
	C22.175346,89.215752 38.333187,101.132263 55.000000,113.424149 
	C55.000000,100.788551 55.000000,89.144279 55.000000,76.500000 
M135.997345,126.569000 
	C137.324768,132.911652 138.652191,139.254303 140.194763,146.625015 
	C151.930557,123.137543 163.046356,100.890915 174.371063,78.226181 
	C157.891434,78.226181 142.010010,78.226181 125.970467,78.226181 
	C127.342979,85.244614 128.586838,92.058685 130.022034,98.832214 
	C131.923111,107.804543 133.973785,116.745186 135.997345,126.569000 
M158.495056,76.000000 
	C163.591019,76.000000 168.686966,76.000000 174.488388,76.000000 
	C162.989929,52.996181 151.812927,30.635485 140.130646,7.263910 
	C135.248657,30.679083 130.571777,53.110565 125.799416,76.000000 
	C136.587662,76.000000 147.042435,76.000000 158.495056,76.000000 
M63.542583,121.000801 
	C61.484314,120.106758 59.426048,119.212715 57.346558,118.309456 
	C52.677895,129.029648 47.951012,139.883530 43.199902,150.793045 
	C73.146904,150.793045 102.807220,150.793045 133.528076,150.793045 
	C122.731361,146.249329 112.880585,142.183426 103.095146,137.965927 
	C90.145950,132.384857 77.247887,126.685150 63.542583,121.000801 
M96.997978,18.503521 
	C108.553688,13.605209 120.109390,8.706898 131.665100,3.808587 
	C131.602524,3.601529 131.539948,3.394472 131.477371,3.187415 
	C102.151039,3.187415 72.824699,3.187415 43.230793,3.187415 
	C47.955856,13.895061 52.648354,24.528900 57.368240,35.224812 
	C70.682831,29.671799 83.518089,24.318693 96.997978,18.503521 
M31.475599,99.985855 
	C24.171686,94.662888 16.867773,89.339920 9.563859,84.016953 
	C9.334191,84.260612 9.104523,84.504272 8.874855,84.747932 
	C19.393955,105.783791 29.913055,126.819649 40.708401,148.407944 
	C45.247490,138.082733 49.598431,128.299728 53.759235,118.436516 
	C54.008408,117.845871 52.946049,116.343269 52.141056,115.723152 
	C45.474468,110.587639 38.724651,105.560165 31.475599,99.985855 
z"/>
<path fill="#22222A" opacity="1.000000" stroke="none" 
	d="
M179.000000,73.531342 
	C178.213882,73.394173 177.092102,72.957062 176.690475,72.157990 
	C164.881561,48.663086 153.144287,25.132181 141.697800,1.303504 
	C154.284073,1.000000 166.568161,1.000000 179.000000,1.000000 
	C179.000000,25.020712 179.000000,49.041698 179.000000,73.531342 
z"/>
<path fill="#22222A" opacity="1.000000" stroke="none" 
	d="
M1.000000,80.468658 
	C1.786108,80.605820 2.907892,81.042923 3.309520,81.841988 
	C15.118435,105.336899 26.855709,128.867813 38.302200,152.696503 
	C25.715923,153.000000 13.431846,153.000000 1.000000,153.000000 
	C1.000000,128.979294 1.000000,104.958305 1.000000,80.468658 
z"/>
<path fill="#22222A" opacity="1.000000" stroke="none" 
	d="
M142.468658,153.000000 
	C142.265076,151.892014 142.330521,150.684830 142.824539,149.690598 
	C154.094315,127.009674 165.406372,104.349770 176.736679,81.699005 
	C177.150558,80.871582 177.828964,80.176476 178.692047,79.709854 
	C179.000000,104.236153 179.000000,128.472305 179.000000,153.000000 
	C166.980682,153.000000 154.959000,153.000000 142.468658,153.000000 
z"/>
<path fill="#22222A" opacity="1.000000" stroke="none" 
	d="
M37.531342,1.000000 
	C37.734917,2.107978 37.669464,3.315148 37.175453,4.309372 
	C25.905695,26.990299 14.593637,49.650223 3.263355,72.301003 
	C2.849462,73.128426 2.171043,73.823524 1.307951,74.290146 
	C1.000000,49.763844 1.000000,25.527683 1.000000,1.000000 
	C13.019324,1.000000 25.041004,1.000000 37.531342,1.000000 
z"/>
<path fill="#22222A" opacity="1.000000" stroke="none" 
	d="
M105.284874,89.275581 
	C111.281097,85.742424 116.982285,82.447945 122.882576,79.038406 
	C127.709900,102.288109 132.488403,125.302681 137.426682,149.086792 
	C111.152954,137.899475 85.618950,127.027153 59.422626,115.872810 
	C75.097549,106.805580 90.043686,98.159927 105.284874,89.275581 
z"/>
<path fill="#22222A" opacity="1.000000" stroke="none" 
	d="
M129.956818,8.002712 
	C132.403091,7.038224 134.456604,6.110248 137.477341,4.745182 
	C132.603180,28.244978 127.884987,50.992855 123.084885,74.135628 
	C101.845406,61.796272 81.055748,49.718250 60.225986,37.616928 
	C83.447144,27.711420 106.505585,17.875322 129.956818,8.002712 
z"/>
<path fill="#22222A" opacity="1.000000" stroke="none" 
	d="
M57.000000,74.000000 
	C57.000000,62.411224 57.000000,51.322449 57.000000,39.439640 
	C78.707230,52.053928 99.745529,64.279488 120.820694,76.526474 
	C99.768944,88.765549 78.731850,100.996101 57.000000,113.630569 
	C57.000000,100.008789 57.000000,87.254395 57.000000,74.000000 
z"/>
<path fill="#22222A" opacity="1.000000" stroke="none" 
	d="
M55.000000,77.000000 
	C55.000000,89.144279 55.000000,100.788551 55.000000,113.424149 
	C38.333187,101.132263 22.175346,89.215752 5.307877,76.775887 
	C21.818199,64.499580 38.078785,52.408974 55.000000,39.827152 
	C55.000000,52.455097 55.000000,64.477547 55.000000,77.000000 
z"/>
<path fill="#22222A" opacity="1.000000" stroke="none" 
	d="
M135.978760,126.134224 
	C133.973785,116.745186 131.923111,107.804543 130.022034,98.832214 
	C128.586838,92.058685 127.342979,85.244614 125.970467,78.226181 
	C142.010010,78.226181 157.891434,78.226181 174.371063,78.226181 
	C163.046356,100.890915 151.930557,123.137543 140.194763,146.625015 
	C138.652191,139.254303 137.324768,132.911652 135.978760,126.134224 
z"/>
<path fill="#22222A" opacity="1.000000" stroke="none" 
	d="
M157.996140,76.000000 
	C147.042435,76.000000 136.587662,76.000000 125.799416,76.000000 
	C130.571777,53.110565 135.248657,30.679083 140.130646,7.263910 
	C151.812927,30.635485 162.989929,52.996181 174.488388,76.000000 
	C168.686966,76.000000 163.591019,76.000000 157.996140,76.000000 
z"/>
<path fill="#22222A" opacity="1.000000" stroke="none" 
	d="
M63.935211,121.018616 
	C77.247887,126.685150 90.145950,132.384857 103.095146,137.965927 
	C112.880585,142.183426 122.731361,146.249329 133.528076,150.793045 
	C102.807220,150.793045 73.146904,150.793045 43.199902,150.793045 
	C47.951012,139.883530 52.677895,129.029648 57.346558,118.309456 
	C59.426048,119.212715 61.484314,120.106758 63.935211,121.018616 
z"/>
<path fill="#22222A" opacity="1.000000" stroke="none" 
	d="
M96.675667,18.734554 
	C83.518089,24.318693 70.682831,29.671799 57.368240,35.224812 
	C52.648354,24.528900 47.955856,13.895061 43.230793,3.187415 
	C72.824699,3.187415 102.151039,3.187415 131.477371,3.187415 
	C131.539948,3.394472 131.602524,3.601529 131.665100,3.808587 
	C120.109390,8.706898 108.553688,13.605209 96.675667,18.734554 
z"/>
<path fill="#22222A" opacity="1.000000" stroke="none" 
	d="
M31.737808,100.242935 
	C38.724651,105.560165 45.474468,110.587639 52.141056,115.723152 
	C52.946049,116.343269 54.008408,117.845871 53.759235,118.436516 
	C49.598431,128.299728 45.247490,138.082733 40.708401,148.407944 
	C29.913055,126.819649 19.393955,105.783791 8.874855,84.747932 
	C9.104523,84.504272 9.334191,84.260612 9.563859,84.016953 
	C16.867773,89.339920 24.171686,94.662888 31.737808,100.242935 
z"/>
<path fill="#22222A" opacity="1.000000" stroke="none" 
	d="
M9.917792,67.927467 
	C17.138979,53.249046 24.351683,38.566444 31.585512,23.894258 
	C34.493614,17.995834 37.448074,12.120270 40.787151,5.420207 
	C45.437313,16.095539 49.847286,26.219467 54.287998,36.413956 
	C39.643234,47.239658 25.369289,57.791245 10.676487,68.344124 
	C10.144352,68.206100 10.031073,68.066788 9.917792,67.927467 
z"/>
<path fill="#22222A" opacity="1.000000" stroke="none" 
	d="
M10.406001,68.570206 
	C10.114804,69.109901 9.675239,69.424797 9.235672,69.739700 
	C9.276115,69.200043 9.316559,68.660378 9.637397,68.024094 
	C10.031073,68.066788 10.144352,68.206100 10.406001,68.570206 
z"/>
</svg>