<?xml version="1.0" standalone="no"?>
<!DOCTYPE svg PUBLIC "-//W3C//DTD SVG 20010904//EN"
 "http://www.w3.org/TR/2001/REC-SVG-20010904/DTD/svg10.dtd">
<svg version="1.0" xmlns="http://www.w3.org/2000/svg"
 width="178.000000pt" height="178.000000pt" viewBox="0 0 178.000000 178.000000"
 preserveAspectRatio="xMidYMid meet">
<metadata>
Created by potrace 1.14, written by Peter Selinger 2001-2017
</metadata>
<g transform="translate(0.000000,178.000000) scale(0.100000,-0.100000)"
fill="#000000" stroke="none">
<path d="M384 1638 c-4 -6 -90 -177 -191 -380 l-184 -368 188 -380 188 -379
505 0 505 0 188 379 189 379 -189 378 -189 378 -502 3 c-380 2 -502 -1 -508
-10z m945 -12 c-2 -2 -114 -50 -249 -106 -135 -56 -263 -111 -285 -121 -22
-10 -69 -30 -105 -45 -36 -15 -80 -33 -98 -41 -31 -13 -33 -12 -42 12 -5 14
-21 49 -34 78 -34 74 -96 217 -96 222 0 3 206 5 457 5 251 0 454 -2 452 -4z
m32 -57 c-5 -24 -12 -55 -15 -69 -2 -14 -9 -45 -15 -70 -5 -25 -12 -56 -15
-70 -2 -14 -18 -92 -35 -175 -18 -82 -33 -159 -35 -170 -17 -91 -19 -95 -37
-95 -10 0 -20 4 -23 8 -3 5 -140 86 -305 182 l-300 173 37 17 c42 19 397 170
607 258 77 33 141 58 143 57 1 -1 -2 -22 -7 -46z m-889 -117 c64 -150 66 -158
49 -172 -16 -14 -396 -295 -444 -329 -11 -8 -18 -10 -15 -5 2 5 78 156 168
337 90 180 166 327 169 327 3 -1 36 -71 73 -158z m1259 -529 l9 -23 -249 0
-249 0 9 38 c4 20 22 102 38 182 74 358 93 446 98 464 3 12 59 -89 170 -310
90 -181 169 -339 174 -351z m-841 157 c173 -100 316 -183 317 -185 2 -1 -50
-32 -115 -68 -64 -37 -162 -94 -217 -127 -55 -32 -129 -75 -165 -95 -36 -21
-84 -48 -107 -62 l-43 -25 0 377 c0 207 3 374 8 372 4 -2 149 -86 322 -187z
m-350 -191 l0 -371 -52 38 c-29 21 -105 77 -168 124 -63 47 -152 113 -197 145
-45 33 -82 63 -83 66 0 4 82 68 183 142 100 74 209 155 242 180 33 25 63 46
68 46 4 1 7 -166 7 -370z m1200 -12 c0 -2 -78 -160 -174 -352 -121 -241 -176
-342 -180 -329 -3 11 -26 118 -51 239 -25 121 -53 254 -62 295 -8 41 -19 92
-23 113 l-7 37 248 0 c137 0 249 -2 249 -3z m-507 -44 c5 -32 39 -198 121
-592 9 -41 15 -76 13 -77 -2 -1 -172 69 -242 101 -16 7 -142 61 -280 120 -137
58 -253 109 -257 113 -7 7 608 371 628 372 6 0 14 -17 17 -37z m-929 -166
c127 -93 232 -171 234 -172 4 -3 -128 -308 -138 -318 -4 -5 -85 145 -179 333
-94 187 -166 338 -160 334 6 -4 115 -83 243 -177z m654 -353 l374 -159 -453
-3 c-249 -1 -454 0 -457 3 -2 2 2 19 10 37 17 35 73 162 107 242 13 29 26 46
33 43 7 -2 181 -76 386 -163z"/>
</g>
</svg>
